# xmcd
# 
# Track frame offsets:
#     150
#     15537
#     43064
#     59187
#     79104
#     106232
#     123759
#     140190
#     162270
#     189578
#     205875
#     220485
# 
# Disc length: 3176
# 
# Revision: 2
# Processed by: cddbd v1.5.2PL0 Copyright (c) Steve Scherf et al.
# Submitted via: fre:ac v1.0.31
# 
DISCID=b20c660c
DTITLE=Samantha Fish - Wild Heart
DYEAR=2015
DGENRE=Blues
TTITLE0=Road Runner
TTITLE1=Place To Fall
TTITLE2=Blame It On The Moon
TTITLE3=Highway's Holding Me Now
TTITLE4=Go Home
TTITLE5=Jim Lee Blues Pt.1
TTITLE6=Turn It Up
TTITLE7=Show Me
TTITLE8=Lost Myself
TTITLE9=Wild Heart
TTITLE10=Bitch On The Run
TTITLE11=I'm In Love With You
EXTD=Year: 2015\n\n\n\n                                                           www.samanthafish.com\n\n\n\n                                        https://samantha-fish-merchandise.myshopify.com/
EXTT0=Road Runner
EXTT1=Place To Fall
EXTT2=Blame It On The Moon
EXTT3=Highway's Holding Me Now
EXTT4=Go Home
EXTT5=Jim Lee Blues Pt.1
EXTT6=Turn It Up
EXTT7=Show Me
EXTT8=Lost Myself
EXTT9=Wild Heart
EXTT10=Bitch On The Run
EXTT11=I'm In Love With You
PLAYORDER=
